ISO-10303-21;
HEADER;
FILE_DESCRIPTION(('ViewDefinition[DesignTransferView]'),'2;1');
FILE_NAME('/dev/null','2026-09-27T02:21:00-04:00',(''),(''),'IfcOpenShell 0.8.5','IfcOpenShell 0.8.5','Nobody');
FILE_SCHEMA(('IFC4'));
ENDSEC;
DATA;
#1=IFCPROJECT('0BZS8ATzT2Jf1lTLwdjyuR',$,'ORI synthetic INCOMPLETE model',$,$,$,$,(#10),#5);
#2=IFCSIUNIT(*,.LENGTHUNIT.,.MILLI.,.METRE.);
#3=IFCSIUNIT(*,.AREAUNIT.,$,.SQUARE_METRE.);
#4=IFCSIUNIT(*,.VOLUMEUNIT.,$,.CUBIC_METRE.);
#5=IFCUNITASSIGNMENT((#4,#2,#3));
#6=IFCCARTESIANPOINT((0.,0.,0.));
#7=IFCDIRECTION((0.,0.,1.));
#8=IFCDIRECTION((1.,0.,0.));
#9=IFCAXIS2PLACEMENT3D(#6,#7,#8);
#10=IFCGEOMETRICREPRESENTATIONCONTEXT($,'Model',3,1.0000000000000001E-05,#9,$);
#11=IFCGEOMETRICREPRESENTATIONSUBCONTEXT('Body','Model',*,*,*,*,#10,$,.MODEL_VIEW.,$);
#12=IFCSITE('2DMHjd_Dv3NQ4Exy4ozj6d',$,'Synthetic site',$,$,$,$,$,$,$,$,$,$,$);
#13=IFCBUILDING('1yqK5doIX1xwkuM0QbGYqw',$,'Synthetic single-family dwelling',$,$,$,$,$,$,$,$,$);
#14=IFCBUILDINGSTOREY('2OMe0oM25D6Qr$EYHQg2NQ',$,'Level 1',$,$,$,$,$,$,0.);
#15=IFCRELAGGREGATES('3oPxBgvQP0UuEtO3sGKgDH',$,$,$,#1,(#12));
#16=IFCRELAGGREGATES('2U0xj5H0zBwvqhPn68A86x',$,$,$,#12,(#13));
#17=IFCRELAGGREGATES('2PJUia1kT6SgFKlnHikBou',$,$,$,#13,(#14));
#18=IFCSTAIR('3Jk8QVn4L96gz89EuevsQ6',$,'Stair 1',$,$,$,$,$,.STRAIGHT_RUN_STAIR.);
#19=IFCSTAIRFLIGHT('2OH9Xyiv93fRNzuprTYoh2',$,'Stair 1 flight 1',$,$,#67,#61,$,13,12,$,$,.STRAIGHT.);
#20=IFCCARTESIANPOINT((0.,0.));
#21=IFCCARTESIANPOINT((0.,203.19999999999999));
#22=IFCCARTESIANPOINT((241.29999999999998,203.19999999999999));
#23=IFCCARTESIANPOINT((241.29999999999998,406.39999999999998));
#24=IFCCARTESIANPOINT((482.59999999999997,406.39999999999998));
#25=IFCCARTESIANPOINT((482.59999999999997,609.59999999999991));
#26=IFCCARTESIANPOINT((723.89999999999998,609.59999999999991));
#27=IFCCARTESIANPOINT((723.89999999999998,812.79999999999995));
#28=IFCCARTESIANPOINT((965.19999999999993,812.79999999999995));
#29=IFCCARTESIANPOINT((965.19999999999993,1016.));
#30=IFCCARTESIANPOINT((1206.5,1016.));
#31=IFCCARTESIANPOINT((1206.5,1219.2));
#32=IFCCARTESIANPOINT((1447.8,1219.2));
#33=IFCCARTESIANPOINT((1447.8,1422.4000000000001));
#34=IFCCARTESIANPOINT((1689.0999999999999,1422.4000000000001));
#35=IFCCARTESIANPOINT((1689.0999999999999,1625.6000000000001));
#36=IFCCARTESIANPOINT((1930.3999999999999,1625.6000000000001));
#37=IFCCARTESIANPOINT((1930.3999999999999,1828.8000000000002));
#38=IFCCARTESIANPOINT((2171.6999999999998,1828.8000000000002));
#39=IFCCARTESIANPOINT((2171.6999999999998,2032.0000000000002));
#40=IFCCARTESIANPOINT((2413.,2032.0000000000002));
#41=IFCCARTESIANPOINT((2413.,2235.2000000000003));
#42=IFCCARTESIANPOINT((2654.3000000000002,2235.2000000000003));
#43=IFCCARTESIANPOINT((2654.3000000000002,2438.4000000000001));
#44=IFCCARTESIANPOINT((2895.6000000000004,2438.4000000000001));
#45=IFCCARTESIANPOINT((2895.6000000000004,2641.5999999999999));
#46=IFCCARTESIANPOINT((2895.6000000000004,2441.5999999999999));
#47=IFCCARTESIANPOINT((200.,0.));
#48=IFCCARTESIANPOINT((0.,0.));
#49=IFCPOLYLINE((#20,#21,#22,#23,#24,#25,#26,#27,#28,#29,#30,#31,#32,#33,#34,#35,#36,#37,#38,#39,#40,#41,#42,#43,#44,#45,#46,#47,#48));
#50=IFCARBITRARYCLOSEDPROFILEDEF(.AREA.,'stepped side profile',#49);
#51=IFCCARTESIANPOINT((0.,0.,0.));
#52=IFCDIRECTION((0.,-1.,0.));
#53=IFCDIRECTION((1.,0.,0.));
#54=IFCAXIS2PLACEMENT3D(#51,#52,#53);
#55=IFCDIRECTION((0.,0.,1.));
#56=IFCEXTRUDEDAREASOLID(#50,#54,#55,914.39999999999998);
#60=IFCSHAPEREPRESENTATION(#11,'Body','SweptSolid',(#56));
#61=IFCPRODUCTDEFINITIONSHAPE($,$,(#60));
#62=IFCRELAGGREGATES('2PN2IODw93af9ZPBa7COPA',$,$,$,#18,(#19));
#63=IFCCARTESIANPOINT((0.,0.,0.));
#64=IFCDIRECTION((0.,0.,1.));
#65=IFCDIRECTION((1.,0.,0.));
#66=IFCAXIS2PLACEMENT3D(#63,#64,#65);
#67=IFCLOCALPLACEMENT($,#66);
#68=IFCRELCONTAINEDINSPATIALSTRUCTURE('3VXhmuGq53feMXskNuLTTo',$,$,$,(#167,#142,#117,#18,#92),#14);
#69=IFCSPACE('3$0bYPqhDEKg7UgqFhcqw0',$,'Room without use',$,$,#91,#85,$,$,$,$);
#73=IFCCARTESIANPOINT((0.,0.));
#74=IFCCARTESIANPOINT((2438.3999999999996,0.));
#75=IFCCARTESIANPOINT((2438.3999999999996,2438.3999999999996));
#76=IFCCARTESIANPOINT((0.,2438.3999999999996));
#77=IFCCARTESIANPOINT((0.,0.));
#78=IFCPOLYLINE((#73,#74,#75,#76,#77));
#79=IFCARBITRARYCLOSEDPROFILEDEF(.AREA.,$,#78);
#80=IFCCARTESIANPOINT((0.,0.,0.));
#81=IFCAXIS2PLACEMENT3D(#80,$,$);
#82=IFCDIRECTION((0.,0.,1.));
#83=IFCEXTRUDEDAREASOLID(#79,#81,#82,2032.);
#84=IFCSHAPEREPRESENTATION(#11,'Body','SweptSolid',(#83));
#85=IFCPRODUCTDEFINITIONSHAPE($,$,(#84));
#86=IFCRELAGGREGATES('1V1zOOxhH7UQSAZ8OTN_jv',$,$,$,#14,(#69));
#87=IFCCARTESIANPOINT((0.,0.,0.));
#88=IFCDIRECTION((0.,0.,1.));
#89=IFCDIRECTION((1.,0.,0.));
#90=IFCAXIS2PLACEMENT3D(#87,#88,#89);
#91=IFCLOCALPLACEMENT($,#90);
#92=IFCWINDOW('2wrHvWEozAbu5HljekjbRB',$,'EERO without net clear data',$,$,#113,#108,$,1200.,900.,$,$,$);
#96=IFCCARTESIANPOINT((0.,0.));
#97=IFCCARTESIANPOINT((900.,0.));
#98=IFCCARTESIANPOINT((900.,100.));
#99=IFCCARTESIANPOINT((0.,100.));
#100=IFCCARTESIANPOINT((0.,0.));
#101=IFCPOLYLINE((#96,#97,#98,#99,#100));
#102=IFCARBITRARYCLOSEDPROFILEDEF(.AREA.,$,#101);
#103=IFCCARTESIANPOINT((0.,0.,0.));
#104=IFCAXIS2PLACEMENT3D(#103,$,$);
#105=IFCDIRECTION((0.,0.,1.));
#106=IFCEXTRUDEDAREASOLID(#102,#104,#105,1200.);
#107=IFCSHAPEREPRESENTATION(#11,'Body','SweptSolid',(#106));
#108=IFCPRODUCTDEFINITIONSHAPE($,$,(#107));
#109=IFCCARTESIANPOINT((0.,-1000.,1016.));
#110=IFCDIRECTION((0.,0.,1.));
#111=IFCDIRECTION((1.,0.,0.));
#112=IFCAXIS2PLACEMENT3D(#109,#110,#111);
#113=IFCLOCALPLACEMENT($,#112);
#114=IFCPROPERTYSET('3HQsqjLEnFGvrNB1C2ttFo',$,'Pset_ORI_EscapeOpening',$,(#116));
#115=IFCRELDEFINESBYPROPERTIES('1otYZ8kdz9ru0OLcsZiDHx',$,$,$,(#92),#114);
#116=IFCPROPERTYSINGLEVALUE('IsEmergencyEscapeOpening',$,IFCBOOLEAN(.T.),$);
#117=IFCSLAB('0GMlOfe$v7QBhKOQSjh64z',$,'Deck 0',$,$,#138,#133,$,.FLOOR.);
#121=IFCCARTESIANPOINT((0.,0.));
#122=IFCCARTESIANPOINT((3048.,0.));
#123=IFCCARTESIANPOINT((3048.,2438.3999999999996));
#124=IFCCARTESIANPOINT((0.,2438.3999999999996));
#125=IFCCARTESIANPOINT((0.,0.));
#126=IFCPOLYLINE((#121,#122,#123,#124,#125));
#127=IFCARBITRARYCLOSEDPROFILEDEF(.AREA.,$,#126);
#128=IFCCARTESIANPOINT((0.,0.,0.));
#129=IFCAXIS2PLACEMENT3D(#128,$,$);
#130=IFCDIRECTION((0.,0.,1.));
#131=IFCEXTRUDEDAREASOLID(#127,#129,#130,150.);
#132=IFCSHAPEREPRESENTATION(#11,'Body','SweptSolid',(#131));
#133=IFCPRODUCTDEFINITIONSHAPE($,$,(#132));
#134=IFCCARTESIANPOINT((10000.,0.,1069.1999999999998));
#135=IFCDIRECTION((0.,0.,1.));
#136=IFCDIRECTION((1.,0.,0.));
#137=IFCAXIS2PLACEMENT3D(#134,#135,#136);
#138=IFCLOCALPLACEMENT($,#137);
#139=IFCPROPERTYSET('2p1DSHeU5CteJpME$iRtXJ',$,'Pset_ORI_WalkingSurface',$,(#141));
#140=IFCRELDEFINESBYPROPERTIES('0aWnhieTX1dvLQzenqBVGp',$,$,$,(#117),#139);
#141=IFCPROPERTYSINGLEVALUE('OpenSided',$,IFCBOOLEAN(.T.),$);
#142=IFCSLAB('3HfuCYu4D2ARTFr4ifuN92',$,'Deck 1',$,$,#163,#158,$,.FLOOR.);
#146=IFCCARTESIANPOINT((0.,0.));
#147=IFCCARTESIANPOINT((3048.,0.));
#148=IFCCARTESIANPOINT((3048.,2438.3999999999996));
#149=IFCCARTESIANPOINT((0.,2438.3999999999996));
#150=IFCCARTESIANPOINT((0.,0.));
#151=IFCPOLYLINE((#146,#147,#148,#149,#150));
#152=IFCARBITRARYCLOSEDPROFILEDEF(.AREA.,$,#151);
#153=IFCCARTESIANPOINT((0.,0.,0.));
#154=IFCAXIS2PLACEMENT3D(#153,$,$);
#155=IFCDIRECTION((0.,0.,1.));
#156=IFCEXTRUDEDAREASOLID(#152,#154,#155,150.);
#157=IFCSHAPEREPRESENTATION(#11,'Body','SweptSolid',(#156));
#158=IFCPRODUCTDEFINITIONSHAPE($,$,(#157));
#159=IFCCARTESIANPOINT((20000.,0.,1069.1999999999998));
#160=IFCDIRECTION((0.,0.,1.));
#161=IFCDIRECTION((1.,0.,0.));
#162=IFCAXIS2PLACEMENT3D(#159,#160,#161);
#163=IFCLOCALPLACEMENT($,#162);
#164=IFCPROPERTYSET('1CbJDUc2f4fAs7eftlQQCO',$,'Pset_ORI_WalkingSurface',$,(#166));
#165=IFCRELDEFINESBYPROPERTIES('2sYH9F1K1Azh04KwybXaMY',$,$,$,(#142),#164);
#166=IFCPROPERTYSINGLEVALUE('OpenSided',$,IFCBOOLEAN(.T.),$);
#167=IFCSLAB('1uH0jBlE9CWgYtj0i6dIKl',$,'Grade under deck 1',$,$,#188,#183,$,.BASESLAB.);
#171=IFCCARTESIANPOINT((0.,0.));
#172=IFCCARTESIANPOINT((7048.,0.));
#173=IFCCARTESIANPOINT((7048.,6438.3999999999996));
#174=IFCCARTESIANPOINT((0.,6438.3999999999996));
#175=IFCCARTESIANPOINT((0.,0.));
#176=IFCPOLYLINE((#171,#172,#173,#174,#175));
#177=IFCARBITRARYCLOSEDPROFILEDEF(.AREA.,$,#176);
#178=IFCCARTESIANPOINT((0.,0.,0.));
#179=IFCAXIS2PLACEMENT3D(#178,$,$);
#180=IFCDIRECTION((0.,0.,1.));
#181=IFCEXTRUDEDAREASOLID(#177,#179,#180,100.);
#182=IFCSHAPEREPRESENTATION(#11,'Body','SweptSolid',(#181));
#183=IFCPRODUCTDEFINITIONSHAPE($,$,(#182));
#184=IFCCARTESIANPOINT((18000.,-2000.,-100.));
#185=IFCDIRECTION((0.,0.,1.));
#186=IFCDIRECTION((1.,0.,0.));
#187=IFCAXIS2PLACEMENT3D(#184,#185,#186);
#188=IFCLOCALPLACEMENT($,#187);
ENDSEC;
END-ISO-10303-21;
