ISO-10303-21;
HEADER;
FILE_DESCRIPTION(('ViewDefinition[DesignTransferView]'),'2;1');
FILE_NAME('/dev/null','2026-09-27T02:21:00-04:00',(''),(''),'IfcOpenShell 0.8.5','IfcOpenShell 0.8.5','Nobody');
FILE_SCHEMA(('IFC4'));
ENDSEC;
DATA;
#1=IFCPROJECT('0TOj5kioD9Z8kB6v0BpILe',$,'ORI synthetic FAIL model (VA overrides)',$,$,$,$,(#10),#5);
#2=IFCSIUNIT(*,.LENGTHUNIT.,.MILLI.,.METRE.);
#3=IFCSIUNIT(*,.AREAUNIT.,$,.SQUARE_METRE.);
#4=IFCSIUNIT(*,.VOLUMEUNIT.,$,.CUBIC_METRE.);
#5=IFCUNITASSIGNMENT((#4,#2,#3));
#6=IFCCARTESIANPOINT((0.,0.,0.));
#7=IFCDIRECTION((0.,0.,1.));
#8=IFCDIRECTION((1.,0.,0.));
#9=IFCAXIS2PLACEMENT3D(#6,#7,#8);
#10=IFCGEOMETRICREPRESENTATIONCONTEXT($,'Model',3,1.0000000000000001E-05,#9,$);
#11=IFCGEOMETRICREPRESENTATIONSUBCONTEXT('Body','Model',*,*,*,*,#10,$,.MODEL_VIEW.,$);
#12=IFCSITE('2kAtiwt_b8yPhePM0xhETi',$,'Synthetic site',$,$,$,$,$,$,$,$,$,$,$);
#13=IFCBUILDING('3Z$IHklwP4BhSEWT1cF6mA',$,'Synthetic single-family dwelling',$,$,$,$,$,$,$,$,$);
#14=IFCBUILDINGSTOREY('2wkx79eNzFSeKEPjJSb_8z',$,'Level 1',$,$,$,$,$,$,0.);
#15=IFCRELAGGREGATES('12JfidF4v96ALXj2RTTGyB',$,$,$,#1,(#12));
#16=IFCRELAGGREGATES('2CbK_4NSH3xOSpQtHOHm0y',$,$,$,#12,(#13));
#17=IFCRELAGGREGATES('2Z1RJolqP95vyYFb$yUGHV',$,$,$,#13,(#14));
#18=IFCSTAIR('0K23rWj0z0Ne99ox4WuHit',$,'Stair 1',$,$,$,$,$,.STRAIGHT_RUN_STAIR.);
#19=IFCSTAIRFLIGHT('1NFCX6Vub5$hCOAZKr6d3t',$,'Stair 1 flight 1',$,$,#67,#61,$,13,12,$,$,.STRAIGHT.);
#20=IFCCARTESIANPOINT((0.,0.));
#21=IFCCARTESIANPOINT((0.,203.19999999999999));
#22=IFCCARTESIANPOINT((241.29999999999998,203.19999999999999));
#23=IFCCARTESIANPOINT((241.29999999999998,406.39999999999998));
#24=IFCCARTESIANPOINT((482.59999999999997,406.39999999999998));
#25=IFCCARTESIANPOINT((482.59999999999997,609.59999999999991));
#26=IFCCARTESIANPOINT((723.89999999999998,609.59999999999991));
#27=IFCCARTESIANPOINT((723.89999999999998,812.79999999999995));
#28=IFCCARTESIANPOINT((965.19999999999993,812.79999999999995));
#29=IFCCARTESIANPOINT((965.19999999999993,1016.));
#30=IFCCARTESIANPOINT((1206.5,1016.));
#31=IFCCARTESIANPOINT((1206.5,1219.2));
#32=IFCCARTESIANPOINT((1447.8,1219.2));
#33=IFCCARTESIANPOINT((1447.8,1422.4000000000001));
#34=IFCCARTESIANPOINT((1689.0999999999999,1422.4000000000001));
#35=IFCCARTESIANPOINT((1689.0999999999999,1625.6000000000001));
#36=IFCCARTESIANPOINT((1930.3999999999999,1625.6000000000001));
#37=IFCCARTESIANPOINT((1930.3999999999999,1828.8000000000002));
#38=IFCCARTESIANPOINT((2171.6999999999998,1828.8000000000002));
#39=IFCCARTESIANPOINT((2171.6999999999998,2032.0000000000002));
#40=IFCCARTESIANPOINT((2413.,2032.0000000000002));
#41=IFCCARTESIANPOINT((2413.,2235.2000000000003));
#42=IFCCARTESIANPOINT((2654.3000000000002,2235.2000000000003));
#43=IFCCARTESIANPOINT((2654.3000000000002,2438.4000000000001));
#44=IFCCARTESIANPOINT((2876.5500000000002,2438.4000000000001));
#45=IFCCARTESIANPOINT((2876.5500000000002,2654.3000000000002));
#46=IFCCARTESIANPOINT((2876.5500000000002,2454.3000000000002));
#47=IFCCARTESIANPOINT((200.,0.));
#48=IFCCARTESIANPOINT((0.,0.));
#49=IFCPOLYLINE((#20,#21,#22,#23,#24,#25,#26,#27,#28,#29,#30,#31,#32,#33,#34,#35,#36,#37,#38,#39,#40,#41,#42,#43,#44,#45,#46,#47,#48));
#50=IFCARBITRARYCLOSEDPROFILEDEF(.AREA.,'stepped side profile',#49);
#51=IFCCARTESIANPOINT((0.,0.,0.));
#52=IFCDIRECTION((0.,-1.,0.));
#53=IFCDIRECTION((1.,0.,0.));
#54=IFCAXIS2PLACEMENT3D(#51,#52,#53);
#55=IFCDIRECTION((0.,0.,1.));
#56=IFCEXTRUDEDAREASOLID(#50,#54,#55,914.39999999999998);
#60=IFCSHAPEREPRESENTATION(#11,'Body','SweptSolid',(#56));
#61=IFCPRODUCTDEFINITIONSHAPE($,$,(#60));
#62=IFCRELAGGREGATES('1RHoRJGqb3xgf6TBBy4w7U',$,$,$,#18,(#19));
#63=IFCCARTESIANPOINT((0.,0.,0.));
#64=IFCDIRECTION((0.,0.,1.));
#65=IFCDIRECTION((1.,0.,0.));
#66=IFCAXIS2PLACEMENT3D(#63,#64,#65);
#67=IFCLOCALPLACEMENT($,#66);
#68=IFCRELCONTAINEDINSPATIALSTRUCTURE('3aJ5C_aVj3Ox6KYcRLATXB',$,$,$,(#198,#144,#220,#69,#18,#173),#14);
#69=IFCSLAB('1HfLFi8LbBchDhZDrR8Slr',$,'Overhead 1',$,$,#90,#85,$,.FLOOR.);
#73=IFCCARTESIANPOINT((0.,0.));
#74=IFCCARTESIANPOINT((1016.,0.));
#75=IFCCARTESIANPOINT((1016.,1117.5999999999999));
#76=IFCCARTESIANPOINT((0.,1117.5999999999999));
#77=IFCCARTESIANPOINT((0.,0.));
#78=IFCPOLYLINE((#73,#74,#75,#76,#77));
#79=IFCARBITRARYCLOSEDPROFILEDEF(.AREA.,$,#78);
#80=IFCCARTESIANPOINT((0.,0.,0.));
#81=IFCAXIS2PLACEMENT3D(#80,$,$);
#82=IFCDIRECTION((0.,0.,1.));
#83=IFCEXTRUDEDAREASOLID(#79,#81,#82,254.);
#84=IFCSHAPEREPRESENTATION(#11,'Body','SweptSolid',(#83));
#85=IFCPRODUCTDEFINITIONSHAPE($,$,(#84));
#86=IFCCARTESIANPOINT((508.,-1016.,3149.5999999999999));
#87=IFCDIRECTION((0.,0.,1.));
#88=IFCDIRECTION((1.,0.,0.));
#89=IFCAXIS2PLACEMENT3D(#86,#87,#88);
#90=IFCLOCALPLACEMENT($,#89);
#91=IFCSPACE('3v1CUb00L8DhVcfH282jAN',$,'Bedroom 2',$,$,#113,#107,$,$,$,$);
#95=IFCCARTESIANPOINT((0.,0.));
#96=IFCCARTESIANPOINT((2438.3999999999996,0.));
#97=IFCCARTESIANPOINT((2438.3999999999996,2438.3999999999996));
#98=IFCCARTESIANPOINT((0.,2438.3999999999996));
#99=IFCCARTESIANPOINT((0.,0.));
#100=IFCPOLYLINE((#95,#96,#97,#98,#99));
#101=IFCARBITRARYCLOSEDPROFILEDEF(.AREA.,$,#100);
#102=IFCCARTESIANPOINT((0.,0.,0.));
#103=IFCAXIS2PLACEMENT3D(#102,$,$);
#104=IFCDIRECTION((0.,0.,1.));
#105=IFCEXTRUDEDAREASOLID(#101,#103,#104,2032.);
#106=IFCSHAPEREPRESENTATION(#11,'Body','SweptSolid',(#105));
#107=IFCPRODUCTDEFINITIONSHAPE($,$,(#106));
#108=IFCRELAGGREGATES('0PIkMvW4jDfOoUpDQ3jYKl',$,$,$,#14,(#118,#91));
#109=IFCCARTESIANPOINT((0.,0.,0.));
#110=IFCDIRECTION((0.,0.,1.));
#111=IFCDIRECTION((1.,0.,0.));
#112=IFCAXIS2PLACEMENT3D(#109,#110,#111);
#113=IFCLOCALPLACEMENT($,#112);
#114=IFCPROPERTYSET('0gOEaayy18TQ0Xx1aH_AfF',$,'Pset_ORI_SpaceUse',$,(#116,#117));
#115=IFCRELDEFINESBYPROPERTIES('2MeFnmWq91EfeywScV225M',$,$,$,(#91),#114);
#116=IFCPROPERTYSINGLEVALUE('UseCategory',$,IFCLABEL('habitable'),$);
#117=IFCPROPERTYSINGLEVALUE('SlopedCeiling',$,IFCBOOLEAN(.F.),$);
#118=IFCSPACE('0M8Rye$hv9iuzXwTqnQb7a',$,'Bath 2',$,$,#139,#134,$,$,$,$);
#122=IFCCARTESIANPOINT((0.,0.));
#123=IFCCARTESIANPOINT((1524.,0.));
#124=IFCCARTESIANPOINT((1524.,2438.3999999999996));
#125=IFCCARTESIANPOINT((0.,2438.3999999999996));
#126=IFCCARTESIANPOINT((0.,0.));
#127=IFCPOLYLINE((#122,#123,#124,#125,#126));
#128=IFCARBITRARYCLOSEDPROFILEDEF(.AREA.,$,#127);
#129=IFCCARTESIANPOINT((0.,0.,0.));
#130=IFCAXIS2PLACEMENT3D(#129,$,$);
#131=IFCDIRECTION((0.,0.,1.));
#132=IFCEXTRUDEDAREASOLID(#128,#130,#131,1981.1999999999998);
#133=IFCSHAPEREPRESENTATION(#11,'Body','SweptSolid',(#132));
#134=IFCPRODUCTDEFINITIONSHAPE($,$,(#133));
#135=IFCCARTESIANPOINT((10160.,0.,0.));
#136=IFCDIRECTION((0.,0.,1.));
#137=IFCDIRECTION((1.,0.,0.));
#138=IFCAXIS2PLACEMENT3D(#135,#136,#137);
#139=IFCLOCALPLACEMENT($,#138);
#140=IFCPROPERTYSET('3CUb3rWbz70Oh4vj3bsXuE',$,'Pset_ORI_SpaceUse',$,(#142,#143));
#141=IFCRELDEFINESBYPROPERTIES('2I7p_A0RPAWwv$AEe$Ucvh',$,$,$,(#118),#140);
#142=IFCPROPERTYSINGLEVALUE('UseCategory',$,IFCLABEL('bathroom'),$);
#143=IFCPROPERTYSINGLEVALUE('SlopedCeiling',$,IFCBOOLEAN(.F.),$);
#144=IFCWINDOW('1dmD9Dh499yOBprJZhd93G',$,'Bedroom 2 EERO',$,$,#165,#160,$,1200.,900.,$,$,$);
#148=IFCCARTESIANPOINT((0.,0.));
#149=IFCCARTESIANPOINT((900.,0.));
#150=IFCCARTESIANPOINT((900.,100.));
#151=IFCCARTESIANPOINT((0.,100.));
#152=IFCCARTESIANPOINT((0.,0.));
#153=IFCPOLYLINE((#148,#149,#150,#151,#152));
#154=IFCARBITRARYCLOSEDPROFILEDEF(.AREA.,$,#153);
#155=IFCCARTESIANPOINT((0.,0.,0.));
#156=IFCAXIS2PLACEMENT3D(#155,$,$);
#157=IFCDIRECTION((0.,0.,1.));
#158=IFCEXTRUDEDAREASOLID(#154,#156,#157,1200.);
#159=IFCSHAPEREPRESENTATION(#11,'Body','SweptSolid',(#158));
#160=IFCPRODUCTDEFINITIONSHAPE($,$,(#159));
#161=IFCCARTESIANPOINT((0.,-1000.,1168.3999999999999));
#162=IFCDIRECTION((0.,0.,1.));
#163=IFCDIRECTION((1.,0.,0.));
#164=IFCAXIS2PLACEMENT3D(#161,#162,#163);
#165=IFCLOCALPLACEMENT($,#164);
#166=IFCPROPERTYSET('2gFBbS7wrFWeMVUEutB6Af',$,'Pset_ORI_EscapeOpening',$,(#168,#169,#170,#171,#172));
#167=IFCRELDEFINESBYPROPERTIES('3Wrzabkmj4mekxZ_ykvkOE',$,$,$,(#144),#166);
#168=IFCPROPERTYSINGLEVALUE('IsEmergencyEscapeOpening',$,IFCBOOLEAN(.T.),$);
#169=IFCPROPERTYSINGLEVALUE('NetClearHeight',$,IFCLENGTHMEASURE(558.79999999999995),$);
#170=IFCPROPERTYSINGLEVALUE('NetClearWidth',$,IFCLENGTHMEASURE(457.19999999999999),$);
#171=IFCPROPERTYSINGLEVALUE('GradeFloorOrBelowGrade',$,IFCBOOLEAN(.F.),$);
#172=IFCPROPERTYSINGLEVALUE('SillToClearOpeningOffset',$,IFCLENGTHMEASURE(50.799999999999997),$);
#173=IFCSLAB('1y_eZ1WvX2whKu0qOQgrP4',$,'Deck 0',$,$,#194,#189,$,.FLOOR.);
#177=IFCCARTESIANPOINT((0.,0.));
#178=IFCCARTESIANPOINT((3048.,0.));
#179=IFCCARTESIANPOINT((3048.,2438.3999999999996));
#180=IFCCARTESIANPOINT((0.,2438.3999999999996));
#181=IFCCARTESIANPOINT((0.,0.));
#182=IFCPOLYLINE((#177,#178,#179,#180,#181));
#183=IFCARBITRARYCLOSEDPROFILEDEF(.AREA.,$,#182);
#184=IFCCARTESIANPOINT((0.,0.,0.));
#185=IFCAXIS2PLACEMENT3D(#184,$,$);
#186=IFCDIRECTION((0.,0.,1.));
#187=IFCEXTRUDEDAREASOLID(#183,#185,#186,150.);
#188=IFCSHAPEREPRESENTATION(#11,'Body','SweptSolid',(#187));
#189=IFCPRODUCTDEFINITIONSHAPE($,$,(#188));
#190=IFCCARTESIANPOINT((10000.,0.,1069.1999999999998));
#191=IFCDIRECTION((0.,0.,1.));
#192=IFCDIRECTION((1.,0.,0.));
#193=IFCAXIS2PLACEMENT3D(#190,#191,#192);
#194=IFCLOCALPLACEMENT($,#193);
#195=IFCPROPERTYSET('373DYwCBP8dQ22HoP6TTlI',$,'Pset_ORI_WalkingSurface',$,(#197));
#196=IFCRELDEFINESBYPROPERTIES('3yOaqeyf1Dfuc8BZ8raLtH',$,$,$,(#173),#195);
#197=IFCPROPERTYSINGLEVALUE('OpenSided',$,IFCBOOLEAN(.T.),$);
#198=IFCSLAB('0awNPUfWL7ABA7npZ0pSEJ',$,'Grade under deck 0',$,$,#219,#214,$,.BASESLAB.);
#202=IFCCARTESIANPOINT((0.,0.));
#203=IFCCARTESIANPOINT((7048.,0.));
#204=IFCCARTESIANPOINT((7048.,6438.3999999999996));
#205=IFCCARTESIANPOINT((0.,6438.3999999999996));
#206=IFCCARTESIANPOINT((0.,0.));
#207=IFCPOLYLINE((#202,#203,#204,#205,#206));
#208=IFCARBITRARYCLOSEDPROFILEDEF(.AREA.,$,#207);
#209=IFCCARTESIANPOINT((0.,0.,0.));
#210=IFCAXIS2PLACEMENT3D(#209,$,$);
#211=IFCDIRECTION((0.,0.,1.));
#212=IFCEXTRUDEDAREASOLID(#208,#210,#211,100.);
#213=IFCSHAPEREPRESENTATION(#11,'Body','SweptSolid',(#212));
#214=IFCPRODUCTDEFINITIONSHAPE($,$,(#213));
#215=IFCCARTESIANPOINT((8000.,-2000.,-100.));
#216=IFCDIRECTION((0.,0.,1.));
#217=IFCDIRECTION((1.,0.,0.));
#218=IFCAXIS2PLACEMENT3D(#215,#216,#217);
#219=IFCLOCALPLACEMENT($,#218);
#220=IFCRAILING('1Hz0VB$_b2P9_q$7Y5gCx6',$,'Deck 0 guard',$,$,#241,#236,$,.GUARDRAIL.);
#224=IFCCARTESIANPOINT((0.,0.));
#225=IFCCARTESIANPOINT((3048.,0.));
#226=IFCCARTESIANPOINT((3048.,50.));
#227=IFCCARTESIANPOINT((0.,50.));
#228=IFCCARTESIANPOINT((0.,0.));
#229=IFCPOLYLINE((#224,#225,#226,#227,#228));
#230=IFCARBITRARYCLOSEDPROFILEDEF(.AREA.,$,#229);
#231=IFCCARTESIANPOINT((0.,0.,0.));
#232=IFCAXIS2PLACEMENT3D(#231,$,$);
#233=IFCDIRECTION((0.,0.,1.));
#234=IFCEXTRUDEDAREASOLID(#230,#232,#233,762.);
#235=IFCSHAPEREPRESENTATION(#11,'Body','SweptSolid',(#234));
#236=IFCPRODUCTDEFINITIONSHAPE($,$,(#235));
#237=IFCCARTESIANPOINT((10000.,0.,1219.1999999999998));
#238=IFCDIRECTION((0.,0.,1.));
#239=IFCDIRECTION((1.,0.,0.));
#240=IFCAXIS2PLACEMENT3D(#237,#238,#239);
#241=IFCLOCALPLACEMENT($,#240);
ENDSEC;
END-ISO-10303-21;
