ISO-10303-21;
HEADER;
FILE_DESCRIPTION(('ViewDefinition[DesignTransferView]'),'2;1');
FILE_NAME('/dev/null','2026-09-27T02:21:00-04:00',(''),(''),'IfcOpenShell 0.8.5','IfcOpenShell 0.8.5','Nobody');
FILE_SCHEMA(('IFC4'));
ENDSEC;
DATA;
#1=IFCPROJECT('3mRQmmnP1FWvcaZeiR6mPs',$,'ORI synthetic PASS model (VA overrides)',$,$,$,$,(#10),#5);
#2=IFCSIUNIT(*,.LENGTHUNIT.,.MILLI.,.METRE.);
#3=IFCSIUNIT(*,.AREAUNIT.,$,.SQUARE_METRE.);
#4=IFCSIUNIT(*,.VOLUMEUNIT.,$,.CUBIC_METRE.);
#5=IFCUNITASSIGNMENT((#4,#2,#3));
#6=IFCCARTESIANPOINT((0.,0.,0.));
#7=IFCDIRECTION((0.,0.,1.));
#8=IFCDIRECTION((1.,0.,0.));
#9=IFCAXIS2PLACEMENT3D(#6,#7,#8);
#10=IFCGEOMETRICREPRESENTATIONCONTEXT($,'Model',3,1.0000000000000001E-05,#9,$);
#11=IFCGEOMETRICREPRESENTATIONSUBCONTEXT('Body','Model',*,*,*,*,#10,$,.MODEL_VIEW.,$);
#12=IFCSITE('3DDW_hBYT4mxHydHRlxMuN',$,'Synthetic site',$,$,$,$,$,$,$,$,$,$,$);
#13=IFCBUILDING('2ZNwpkR89BAf8wawoAlh7E',$,'Synthetic single-family dwelling',$,$,$,$,$,$,$,$,$);
#14=IFCBUILDINGSTOREY('3TAyCIM0z1TvzsPX$7YCys',$,'Level 1',$,$,$,$,$,$,0.);
#15=IFCRELAGGREGATES('1HD9RA8xb3uOKzfM$KZNfh',$,$,$,#1,(#12));
#16=IFCRELAGGREGATES('2AsacbrIb32RN__2YbSuVo',$,$,$,#12,(#13));
#17=IFCRELAGGREGATES('2amPdmvijAAxJ9OMTcgILm',$,$,$,#13,(#14));
#18=IFCSTAIR('2T0jqRz3D7bPrv1qsCLc7T',$,'Stair 1',$,$,$,$,$,.STRAIGHT_RUN_STAIR.);
#19=IFCSTAIRFLIGHT('27JWAv4Qz6LRX79wXMwfFv',$,'Stair 1 flight 1',$,$,#67,#61,$,13,12,$,$,.STRAIGHT.);
#20=IFCCARTESIANPOINT((0.,0.));
#21=IFCCARTESIANPOINT((0.,203.19999999999999));
#22=IFCCARTESIANPOINT((241.29999999999998,203.19999999999999));
#23=IFCCARTESIANPOINT((241.29999999999998,406.39999999999998));
#24=IFCCARTESIANPOINT((482.59999999999997,406.39999999999998));
#25=IFCCARTESIANPOINT((482.59999999999997,609.59999999999991));
#26=IFCCARTESIANPOINT((723.89999999999998,609.59999999999991));
#27=IFCCARTESIANPOINT((723.89999999999998,812.79999999999995));
#28=IFCCARTESIANPOINT((965.19999999999993,812.79999999999995));
#29=IFCCARTESIANPOINT((965.19999999999993,1016.));
#30=IFCCARTESIANPOINT((1206.5,1016.));
#31=IFCCARTESIANPOINT((1206.5,1219.2));
#32=IFCCARTESIANPOINT((1447.8,1219.2));
#33=IFCCARTESIANPOINT((1447.8,1422.4000000000001));
#34=IFCCARTESIANPOINT((1689.0999999999999,1422.4000000000001));
#35=IFCCARTESIANPOINT((1689.0999999999999,1625.6000000000001));
#36=IFCCARTESIANPOINT((1930.3999999999999,1625.6000000000001));
#37=IFCCARTESIANPOINT((1930.3999999999999,1828.8000000000002));
#38=IFCCARTESIANPOINT((2171.6999999999998,1828.8000000000002));
#39=IFCCARTESIANPOINT((2171.6999999999998,2032.0000000000002));
#40=IFCCARTESIANPOINT((2413.,2032.0000000000002));
#41=IFCCARTESIANPOINT((2413.,2235.2000000000003));
#42=IFCCARTESIANPOINT((2654.3000000000002,2235.2000000000003));
#43=IFCCARTESIANPOINT((2654.3000000000002,2438.4000000000001));
#44=IFCCARTESIANPOINT((2895.6000000000004,2438.4000000000001));
#45=IFCCARTESIANPOINT((2895.6000000000004,2641.5999999999999));
#46=IFCCARTESIANPOINT((2895.6000000000004,2441.5999999999999));
#47=IFCCARTESIANPOINT((200.,0.));
#48=IFCCARTESIANPOINT((0.,0.));
#49=IFCPOLYLINE((#20,#21,#22,#23,#24,#25,#26,#27,#28,#29,#30,#31,#32,#33,#34,#35,#36,#37,#38,#39,#40,#41,#42,#43,#44,#45,#46,#47,#48));
#50=IFCARBITRARYCLOSEDPROFILEDEF(.AREA.,'stepped side profile',#49);
#51=IFCCARTESIANPOINT((0.,0.,0.));
#52=IFCDIRECTION((0.,-1.,0.));
#53=IFCDIRECTION((1.,0.,0.));
#54=IFCAXIS2PLACEMENT3D(#51,#52,#53);
#55=IFCDIRECTION((0.,0.,1.));
#56=IFCEXTRUDEDAREASOLID(#50,#54,#55,914.39999999999998);
#60=IFCSHAPEREPRESENTATION(#11,'Body','SweptSolid',(#56));
#61=IFCPRODUCTDEFINITIONSHAPE($,$,(#60));
#62=IFCRELAGGREGATES('1YuJqWSobFgQS7XohFdvM0',$,$,$,#18,(#19));
#63=IFCCARTESIANPOINT((0.,0.,0.));
#64=IFCDIRECTION((0.,0.,1.));
#65=IFCDIRECTION((1.,0.,0.));
#66=IFCAXIS2PLACEMENT3D(#63,#64,#65);
#67=IFCLOCALPLACEMENT($,#66);
#68=IFCRELCONTAINEDINSPATIALSTRUCTURE('3RGagOWRL18PZ575m52Qtb',$,$,$,(#224,#170,#246,#199,#69,#18),#14);
#69=IFCSLAB('0UNJWDFij3oRenezcSUmZt',$,'Overhead 1',$,$,#90,#85,$,.FLOOR.);
#73=IFCCARTESIANPOINT((0.,0.));
#74=IFCCARTESIANPOINT((1016.,0.));
#75=IFCCARTESIANPOINT((1016.,1117.5999999999999));
#76=IFCCARTESIANPOINT((0.,1117.5999999999999));
#77=IFCCARTESIANPOINT((0.,0.));
#78=IFCPOLYLINE((#73,#74,#75,#76,#77));
#79=IFCARBITRARYCLOSEDPROFILEDEF(.AREA.,$,#78);
#80=IFCCARTESIANPOINT((0.,0.,0.));
#81=IFCAXIS2PLACEMENT3D(#80,$,$);
#82=IFCDIRECTION((0.,0.,1.));
#83=IFCEXTRUDEDAREASOLID(#79,#81,#82,254.);
#84=IFCSHAPEREPRESENTATION(#11,'Body','SweptSolid',(#83));
#85=IFCPRODUCTDEFINITIONSHAPE($,$,(#84));
#86=IFCCARTESIANPOINT((0.,-1016.,3149.5999999999999));
#87=IFCDIRECTION((0.,0.,1.));
#88=IFCDIRECTION((1.,0.,0.));
#89=IFCAXIS2PLACEMENT3D(#86,#87,#88);
#90=IFCLOCALPLACEMENT($,#89);
#91=IFCSPACE('2C$SRbTLP9Q9Oy5v_Nq8FP',$,'Bedroom 1',$,$,#113,#107,$,$,$,$);
#95=IFCCARTESIANPOINT((0.,0.));
#96=IFCCARTESIANPOINT((3352.7999999999997,0.));
#97=IFCCARTESIANPOINT((3352.7999999999997,3048.));
#98=IFCCARTESIANPOINT((0.,3048.));
#99=IFCCARTESIANPOINT((0.,0.));
#100=IFCPOLYLINE((#95,#96,#97,#98,#99));
#101=IFCARBITRARYCLOSEDPROFILEDEF(.AREA.,$,#100);
#102=IFCCARTESIANPOINT((0.,0.,0.));
#103=IFCAXIS2PLACEMENT3D(#102,$,$);
#104=IFCDIRECTION((0.,0.,1.));
#105=IFCEXTRUDEDAREASOLID(#101,#103,#104,2438.3999999999996);
#106=IFCSHAPEREPRESENTATION(#11,'Body','SweptSolid',(#105));
#107=IFCPRODUCTDEFINITIONSHAPE($,$,(#106));
#108=IFCRELAGGREGATES('3tDtH1ppP2sB7WHEfEDhaO',$,$,$,#14,(#118,#91,#144));
#109=IFCCARTESIANPOINT((0.,0.,0.));
#110=IFCDIRECTION((0.,0.,1.));
#111=IFCDIRECTION((1.,0.,0.));
#112=IFCAXIS2PLACEMENT3D(#109,#110,#111);
#113=IFCLOCALPLACEMENT($,#112);
#114=IFCPROPERTYSET('02UUq0ZtX2Cx9U4n0tJ0p$',$,'Pset_ORI_SpaceUse',$,(#116,#117));
#115=IFCRELDEFINESBYPROPERTIES('0BIcZfuEr49fzzGC4hPDny',$,$,$,(#91),#114);
#116=IFCPROPERTYSINGLEVALUE('UseCategory',$,IFCLABEL('habitable'),$);
#117=IFCPROPERTYSINGLEVALUE('SlopedCeiling',$,IFCBOOLEAN(.F.),$);
#118=IFCSPACE('3Ol7Th5tT7KelezvqfKkDC',$,'Kitchen',$,$,#139,#134,$,$,$,$);
#122=IFCCARTESIANPOINT((0.,0.));
#123=IFCCARTESIANPOINT((2438.3999999999996,0.));
#124=IFCCARTESIANPOINT((2438.3999999999996,2133.5999999999999));
#125=IFCCARTESIANPOINT((0.,2133.5999999999999));
#126=IFCCARTESIANPOINT((0.,0.));
#127=IFCPOLYLINE((#122,#123,#124,#125,#126));
#128=IFCARBITRARYCLOSEDPROFILEDEF(.AREA.,$,#127);
#129=IFCCARTESIANPOINT((0.,0.,0.));
#130=IFCAXIS2PLACEMENT3D(#129,$,$);
#131=IFCDIRECTION((0.,0.,1.));
#132=IFCEXTRUDEDAREASOLID(#128,#130,#131,2438.3999999999996);
#133=IFCSHAPEREPRESENTATION(#11,'Body','SweptSolid',(#132));
#134=IFCPRODUCTDEFINITIONSHAPE($,$,(#133));
#135=IFCCARTESIANPOINT((5080.,0.,0.));
#136=IFCDIRECTION((0.,0.,1.));
#137=IFCDIRECTION((1.,0.,0.));
#138=IFCAXIS2PLACEMENT3D(#135,#136,#137);
#139=IFCLOCALPLACEMENT($,#138);
#140=IFCPROPERTYSET('06WMggHgPCFPqX8YDW7r36',$,'Pset_ORI_SpaceUse',$,(#142,#143));
#141=IFCRELDEFINESBYPROPERTIES('07fb0vW0X7qxvirIrUXAY0',$,$,$,(#118),#140);
#142=IFCPROPERTYSINGLEVALUE('UseCategory',$,IFCLABEL('kitchen'),$);
#143=IFCPROPERTYSINGLEVALUE('SlopedCeiling',$,IFCBOOLEAN(.F.),$);
#144=IFCSPACE('1Xv2WGdgr8AxT7oQ1_fbUy',$,'Bath 1',$,$,#165,#160,$,$,$,$);
#148=IFCCARTESIANPOINT((0.,0.));
#149=IFCCARTESIANPOINT((1524.,0.));
#150=IFCCARTESIANPOINT((1524.,2438.3999999999996));
#151=IFCCARTESIANPOINT((0.,2438.3999999999996));
#152=IFCCARTESIANPOINT((0.,0.));
#153=IFCPOLYLINE((#148,#149,#150,#151,#152));
#154=IFCARBITRARYCLOSEDPROFILEDEF(.AREA.,$,#153);
#155=IFCCARTESIANPOINT((0.,0.,0.));
#156=IFCAXIS2PLACEMENT3D(#155,$,$);
#157=IFCDIRECTION((0.,0.,1.));
#158=IFCEXTRUDEDAREASOLID(#154,#156,#157,2057.4000000000001);
#159=IFCSHAPEREPRESENTATION(#11,'Body','SweptSolid',(#158));
#160=IFCPRODUCTDEFINITIONSHAPE($,$,(#159));
#161=IFCCARTESIANPOINT((10160.,0.,0.));
#162=IFCDIRECTION((0.,0.,1.));
#163=IFCDIRECTION((1.,0.,0.));
#164=IFCAXIS2PLACEMENT3D(#161,#162,#163);
#165=IFCLOCALPLACEMENT($,#164);
#166=IFCPROPERTYSET('3z3LiZ3Zv27x7OOidgQv4P',$,'Pset_ORI_SpaceUse',$,(#168,#169));
#167=IFCRELDEFINESBYPROPERTIES('2gpRk81pb9EviEwUhJR$WS',$,$,$,(#144),#166);
#168=IFCPROPERTYSINGLEVALUE('UseCategory',$,IFCLABEL('bathroom'),$);
#169=IFCPROPERTYSINGLEVALUE('SlopedCeiling',$,IFCBOOLEAN(.F.),$);
#170=IFCWINDOW('2EfLTXs5z7NgMFpi7$LIix',$,'Bedroom 1 EERO',$,$,#191,#186,$,1200.,900.,$,$,$);
#174=IFCCARTESIANPOINT((0.,0.));
#175=IFCCARTESIANPOINT((900.,0.));
#176=IFCCARTESIANPOINT((900.,100.));
#177=IFCCARTESIANPOINT((0.,100.));
#178=IFCCARTESIANPOINT((0.,0.));
#179=IFCPOLYLINE((#174,#175,#176,#177,#178));
#180=IFCARBITRARYCLOSEDPROFILEDEF(.AREA.,$,#179);
#181=IFCCARTESIANPOINT((0.,0.,0.));
#182=IFCAXIS2PLACEMENT3D(#181,$,$);
#183=IFCDIRECTION((0.,0.,1.));
#184=IFCEXTRUDEDAREASOLID(#180,#182,#183,1200.);
#185=IFCSHAPEREPRESENTATION(#11,'Body','SweptSolid',(#184));
#186=IFCPRODUCTDEFINITIONSHAPE($,$,(#185));
#187=IFCCARTESIANPOINT((0.,-1000.,1016.));
#188=IFCDIRECTION((0.,0.,1.));
#189=IFCDIRECTION((1.,0.,0.));
#190=IFCAXIS2PLACEMENT3D(#187,#188,#189);
#191=IFCLOCALPLACEMENT($,#190);
#192=IFCPROPERTYSET('3ad1ApBMfEUASZAvn8H2Bm',$,'Pset_ORI_EscapeOpening',$,(#194,#195,#196,#197,#198));
#193=IFCRELDEFINESBYPROPERTIES('2i3gBJC_f4Xuu1Po7fot24',$,$,$,(#170),#192);
#194=IFCPROPERTYSINGLEVALUE('IsEmergencyEscapeOpening',$,IFCBOOLEAN(.T.),$);
#195=IFCPROPERTYSINGLEVALUE('NetClearHeight',$,IFCLENGTHMEASURE(914.39999999999998),$);
#196=IFCPROPERTYSINGLEVALUE('NetClearWidth',$,IFCLENGTHMEASURE(609.59999999999991),$);
#197=IFCPROPERTYSINGLEVALUE('GradeFloorOrBelowGrade',$,IFCBOOLEAN(.F.),$);
#198=IFCPROPERTYSINGLEVALUE('SillToClearOpeningOffset',$,IFCLENGTHMEASURE(50.799999999999997),$);
#199=IFCSLAB('27hfA14jPF7ArpfbQ5iFqu',$,'Deck 0',$,$,#220,#215,$,.FLOOR.);
#203=IFCCARTESIANPOINT((0.,0.));
#204=IFCCARTESIANPOINT((3048.,0.));
#205=IFCCARTESIANPOINT((3048.,2438.3999999999996));
#206=IFCCARTESIANPOINT((0.,2438.3999999999996));
#207=IFCCARTESIANPOINT((0.,0.));
#208=IFCPOLYLINE((#203,#204,#205,#206,#207));
#209=IFCARBITRARYCLOSEDPROFILEDEF(.AREA.,$,#208);
#210=IFCCARTESIANPOINT((0.,0.,0.));
#211=IFCAXIS2PLACEMENT3D(#210,$,$);
#212=IFCDIRECTION((0.,0.,1.));
#213=IFCEXTRUDEDAREASOLID(#209,#211,#212,150.);
#214=IFCSHAPEREPRESENTATION(#11,'Body','SweptSolid',(#213));
#215=IFCPRODUCTDEFINITIONSHAPE($,$,(#214));
#216=IFCCARTESIANPOINT((10000.,0.,1069.1999999999998));
#217=IFCDIRECTION((0.,0.,1.));
#218=IFCDIRECTION((1.,0.,0.));
#219=IFCAXIS2PLACEMENT3D(#216,#217,#218);
#220=IFCLOCALPLACEMENT($,#219);
#221=IFCPROPERTYSET('3P2v_gtn9EW9imcK1Jzkn3',$,'Pset_ORI_WalkingSurface',$,(#223));
#222=IFCRELDEFINESBYPROPERTIES('2WrG8TBXP20fzu6f_tTf3c',$,$,$,(#199),#221);
#223=IFCPROPERTYSINGLEVALUE('OpenSided',$,IFCBOOLEAN(.T.),$);
#224=IFCSLAB('2L_V7DYTnDPgveumVf7tBG',$,'Grade under deck 0',$,$,#245,#240,$,.BASESLAB.);
#228=IFCCARTESIANPOINT((0.,0.));
#229=IFCCARTESIANPOINT((7048.,0.));
#230=IFCCARTESIANPOINT((7048.,6438.3999999999996));
#231=IFCCARTESIANPOINT((0.,6438.3999999999996));
#232=IFCCARTESIANPOINT((0.,0.));
#233=IFCPOLYLINE((#228,#229,#230,#231,#232));
#234=IFCARBITRARYCLOSEDPROFILEDEF(.AREA.,$,#233);
#235=IFCCARTESIANPOINT((0.,0.,0.));
#236=IFCAXIS2PLACEMENT3D(#235,$,$);
#237=IFCDIRECTION((0.,0.,1.));
#238=IFCEXTRUDEDAREASOLID(#234,#236,#237,100.);
#239=IFCSHAPEREPRESENTATION(#11,'Body','SweptSolid',(#238));
#240=IFCPRODUCTDEFINITIONSHAPE($,$,(#239));
#241=IFCCARTESIANPOINT((8000.,-2000.,-100.));
#242=IFCDIRECTION((0.,0.,1.));
#243=IFCDIRECTION((1.,0.,0.));
#244=IFCAXIS2PLACEMENT3D(#241,#242,#243);
#245=IFCLOCALPLACEMENT($,#244);
#246=IFCRAILING('30sW0lkVn3$QOa_L3ZCsPR',$,'Deck 0 guard',$,$,#267,#262,$,.GUARDRAIL.);
#250=IFCCARTESIANPOINT((0.,0.));
#251=IFCCARTESIANPOINT((3048.,0.));
#252=IFCCARTESIANPOINT((3048.,50.));
#253=IFCCARTESIANPOINT((0.,50.));
#254=IFCCARTESIANPOINT((0.,0.));
#255=IFCPOLYLINE((#250,#251,#252,#253,#254));
#256=IFCARBITRARYCLOSEDPROFILEDEF(.AREA.,$,#255);
#257=IFCCARTESIANPOINT((0.,0.,0.));
#258=IFCAXIS2PLACEMENT3D(#257,$,$);
#259=IFCDIRECTION((0.,0.,1.));
#260=IFCEXTRUDEDAREASOLID(#256,#258,#259,914.39999999999998);
#261=IFCSHAPEREPRESENTATION(#11,'Body','SweptSolid',(#260));
#262=IFCPRODUCTDEFINITIONSHAPE($,$,(#261));
#263=IFCCARTESIANPOINT((10000.,0.,1219.1999999999998));
#264=IFCDIRECTION((0.,0.,1.));
#265=IFCDIRECTION((1.,0.,0.));
#266=IFCAXIS2PLACEMENT3D(#263,#264,#265);
#267=IFCLOCALPLACEMENT($,#266);
ENDSEC;
END-ISO-10303-21;
